<svg width="15" height="15" viewBox="0 0 15 15" fill="none" xmlns="http://www.w3.org/2000/svg">
<path d="M11.8056 11.2928C12.0023 11.2928 12.1868 11.3295 12.3589 11.4029C12.5311 11.4763 12.6811 11.5765 12.809 11.7037C12.9369 11.8309 13.0378 11.9801 13.1115 12.1513C13.1853 12.3225 13.2222 12.506 13.2222 12.7017C13.2222 12.8973 13.1853 13.0808 13.1115 13.252C13.0378 13.4232 12.9369 13.5724 12.809 13.6996C12.6811 13.8268 12.5311 13.9271 12.3589 14.0004C12.1868 14.0738 12.0023 14.1105 11.8056 14.1105C11.6088 14.1105 11.4243 14.0738 11.2522 14.0004C11.08 13.9271 10.93 13.8268 10.8021 13.6996C10.6742 13.5724 10.5734 13.4232 10.4996 13.252C10.4258 13.0808 10.3889 12.8973 10.3889 12.7017C10.3889 12.4663 10.2267 12.232 9.99138 12.232H7.00862C6.7733 12.232 6.61111 12.4663 6.61111 12.7017C6.61111 12.8973 6.57422 13.0808 6.50043 13.252C6.42665 13.4232 6.32581 13.5724 6.19792 13.6996C6.07002 13.8268 5.91999 13.9271 5.74783 14.0004C5.57567 14.0738 5.3912 14.1105 5.19444 14.1105C4.99769 14.1105 4.81322 14.0738 4.64106 14.0004C4.46889 13.9271 4.31887 13.8268 4.19097 13.6996C4.06308 13.5724 3.96224 13.4232 3.88845 13.252C3.81467 13.0808 3.77778 12.8973 3.77778 12.7017C3.77778 12.4326 3.8491 12.1831 3.99175 11.9532C4.23175 11.5664 4.47309 11.1065 4.32872 10.6747L1.57967 2.45416C1.46909 2.12348 1.15945 1.90053 0.810763 1.90053H0.469614C0.210254 1.90053 0 1.69028 0 1.43092C0 1.17156 0.210253 0.961304 0.469614 0.961304H1.35296C1.78321 0.961304 2.16523 1.23651 2.30149 1.64461L2.47238 2.15645C2.60864 2.56456 2.99066 2.83976 3.42091 2.83976H13.7222C14.4052 2.83976 14.8872 3.50922 14.6706 4.15693L13.1407 8.73153C13.0043 9.13939 12.6224 9.41436 12.1923 9.41436H6.21046C5.56919 9.41436 5.11649 10.0428 5.31958 10.651C5.44755 11.0343 5.80636 11.2928 6.21046 11.2928H11.8056ZM5.66667 12.7017C5.66667 12.5745 5.61994 12.4644 5.52648 12.3715C5.43302 12.2785 5.32234 12.232 5.19444 12.232C5.06655 12.232 4.95587 12.2785 4.86241 12.3715C4.76895 12.4644 4.72222 12.5745 4.72222 12.7017C4.72222 12.8288 4.76895 12.9389 4.86241 13.0319C4.95587 13.1248 5.06655 13.1713 5.19444 13.1713C5.32234 13.1713 5.43302 13.1248 5.52648 13.0319C5.61994 12.9389 5.66667 12.8288 5.66667 12.7017ZM11.8056 13.1713C11.9334 13.1713 12.0441 13.1248 12.1376 13.0319C12.231 12.9389 12.2778 12.8288 12.2778 12.7017C12.2778 12.5745 12.231 12.4644 12.1376 12.3715C12.0441 12.2785 11.9334 12.232 11.8056 12.232C11.6777 12.232 11.567 12.2785 11.4735 12.3715C11.3801 12.4644 11.3333 12.5745 11.3333 12.7017C11.3333 12.8288 11.3801 12.9389 11.4735 13.0319C11.567 13.1248 11.6777 13.1713 11.8056 13.1713Z" fill="white"/>
</svg>
